<?xml version="1.0" standalone="no"?>
<!DOCTYPE svg PUBLIC "-//W3C//DTD SVG 20010904//EN"
 "http://www.w3.org/TR/2001/REC-SVG-20010904/DTD/svg10.dtd">
<svg version="1.0" xmlns="http://www.w3.org/2000/svg"
 width="699.000000pt" height="223.000000pt" viewBox="0 0 699.000000 223.000000"
 preserveAspectRatio="xMidYMid meet">

<g transform="translate(0.000000,223.000000) scale(0.100000,-0.100000)"
fill="#ffffff" stroke="none">
<path d="M3461 1649 c-80 -24 -157 -95 -198 -187 -19 -41 -25 -69 -25 -125 1
-137 65 -245 178 -302 52 -26 69 -30 144 -30 72 0 92 4 135 27 90 47 162 144
180 241 8 41 -6 67 -36 67 -21 0 -39 -28 -39 -62 0 -37 -57 -126 -101 -158
-61 -44 -132 -56 -203 -36 -107 31 -175 119 -184 236 -4 59 -1 71 29 129 41
77 92 116 171 133 87 18 153 -6 230 -83 50 -51 62 -58 78 -49 28 15 25 39 -10
86 -35 49 -89 87 -149 109 -48 17 -147 19 -200 4z"/>
<path d="M4564 1641 c-61 -28 -97 -80 -101 -149 -7 -100 32 -139 194 -193 130
-43 165 -87 127 -160 -20 -40 -92 -73 -137 -63 -58 12 -88 34 -108 79 -22 51
-32 59 -58 50 -28 -9 -33 -31 -15 -73 59 -141 252 -177 356 -66 71 76 62 198
-17 250 -14 9 -72 34 -128 55 -100 38 -147 72 -147 106 0 29 31 80 57 94 39
21 107 18 140 -7 15 -11 36 -37 46 -57 30 -60 89 -47 73 16 -27 110 -170 169
-282 118z"/>
<path d="M1091 1631 c-9 -15 -7 -23 5 -35 12 -13 41 -16 150 -16 156 0 187
-10 211 -67 21 -51 10 -95 -33 -132 l-35 -31 -137 0 c-75 0 -144 -5 -152 -10
-12 -7 -16 -38 -18 -149 -4 -146 4 -181 36 -181 36 0 42 21 42 142 l0 118 90
0 c120 0 183 15 227 53 90 79 83 220 -14 294 -36 28 -38 28 -199 31 -154 3
-163 2 -173 -17z"/>
<path d="M1643 1634 c-3 -9 -2 -24 4 -33 9 -13 37 -16 179 -19 203 -3 216 -1
212 36 l-3 27 -193 3 c-172 2 -193 1 -199 -14z"/>
<path d="M2137 1643 c-4 -3 -7 -17 -7 -29 0 -33 18 -35 214 -32 145 3 170 5
179 20 8 12 7 21 -2 32 -11 14 -42 16 -196 16 -100 0 -185 -3 -188 -7z"/>
<path d="M2614 1637 c-3 -8 -4 -113 -2 -233 3 -194 5 -224 23 -259 84 -169
313 -194 435 -48 52 64 61 114 58 338 -3 176 -5 199 -20 209 -13 8 -23 8 -35
0 -16 -10 -19 -36 -23 -231 -5 -213 -6 -221 -30 -256 -35 -51 -91 -80 -154
-80 -55 0 -86 12 -124 47 -52 47 -56 66 -62 301 l-5 220 -28 3 c-17 2 -29 -2
-33 -11z"/>
<path d="M3973 1634 c-3 -9 -2 -24 4 -33 9 -13 37 -16 179 -19 203 -3 216 -1
212 36 l-3 27 -193 3 c-172 2 -193 1 -199 -14z"/>
<path d="M1652 1368 c-18 -18 -17 -331 2 -347 9 -8 70 -11 197 -9 l184 3 0 30
0 30 -160 5 -160 5 0 110 0 110 135 5 135 5 0 30 0 30 -160 3 c-116 2 -164 -1
-173 -10z"/>
<path d="M2135 1370 c-7 -12 -7 -338 0 -351 9 -13 39 -11 53 3 8 8 12 56 12
150 l0 138 134 0 c127 0 135 1 141 20 14 44 -7 50 -176 50 -90 0 -160 -4 -164
-10z"/>
<path d="M3982 1368 c-18 -18 -17 -331 2 -347 9 -8 70 -11 197 -9 l184 3 0 30
0 30 -160 5 -160 5 0 110 0 110 135 5 135 5 0 30 0 30 -160 3 c-116 2 -164 -1
-173 -10z"/>
<path d="M3541 1322 c-7 -14 -7 -24 2 -36 10 -14 27 -16 97 -14 l85 3 0 30 0
30 -87 3 c-77 2 -88 1 -97 -16z"/>
<path d="M1386 1204 c-9 -8 -16 -18 -16 -22 1 -4 22 -43 48 -87 49 -82 76
-101 101 -71 11 13 6 28 -29 91 -59 106 -74 120 -104 89z"/>
<path d="M1087 864 c-11 -11 -8 -257 3 -274 22 -35 31 8 28 140 -3 124 -10
155 -31 134z"/>
<path d="M1157 863 c-12 -11 -7 -23 9 -23 31 0 85 -33 99 -61 38 -73 1 -145
-83 -164 -43 -9 -36 -31 9 -27 42 3 74 24 100 65 28 45 22 127 -12 163 -40 43
-102 67 -122 47z"/>
<path d="M1360 855 c0 -12 16 -15 85 -15 69 0 85 3 85 15 0 12 -16 15 -85 15
-69 0 -85 -3 -85 -15z"/>
<path d="M1603 850 c-56 -51 -35 -104 55 -138 57 -22 62 -26 62 -53 0 -55 -88
-66 -112 -13 -6 13 -16 23 -22 21 -21 -7 -17 -28 12 -57 39 -38 88 -41 128 -7
54 47 28 117 -50 138 -51 14 -66 26 -66 53 0 50 67 65 96 21 14 -22 44 -35 44
-19 0 12 -24 50 -39 61 -25 19 -84 16 -108 -7z"/>
<path d="M1945 848 c-3 -13 -4 -77 -3 -143 2 -99 6 -120 18 -120 13 0 15 22
15 139 0 100 -3 140 -12 143 -7 3 -15 -6 -18 -19z"/>
<path d="M2130 725 c0 -113 3 -146 13 -142 9 3 12 40 12 142 0 102 -3 139 -12
143 -10 3 -13 -30 -13 -143z"/>
<path d="M2256 734 c-32 -78 -53 -141 -48 -146 14 -14 145 -5 150 10 3 9 -12
12 -52 12 -32 0 -56 4 -56 10 0 22 74 190 80 183 4 -5 24 -51 45 -103 42 -105
61 -133 70 -109 8 22 -98 273 -117 277 -11 2 -30 -33 -72 -134z"/>
<path d="M2487 863 c-14 -13 -7 -193 7 -222 42 -80 160 -80 201 -1 20 38 18
221 -2 228 -10 3 -13 -21 -13 -98 0 -99 -1 -102 -29 -131 -18 -17 -40 -29 -56
-29 -16 0 -38 12 -56 29 -28 29 -29 32 -29 130 0 93 -5 113 -23 94z"/>
<path d="M2747 864 c-17 -17 12 -24 99 -24 72 0 95 3 92 13 -5 13 -178 23
-191 11z"/>
<path d="M2996 849 c-19 -15 -26 -30 -26 -54 0 -43 27 -69 86 -84 63 -16 82
-66 33 -91 -32 -17 -57 -11 -82 21 -26 34 -49 33 -40 -1 15 -55 108 -80 151
-40 47 44 36 109 -22 130 -82 30 -96 40 -96 63 0 51 64 66 98 22 11 -14 25
-25 31 -25 19 0 12 30 -14 55 -30 31 -82 33 -119 4z"/>
<path d="M2830 690 c0 -85 3 -111 13 -107 8 2 12 33 12 107 0 74 -4 105 -12
108 -10 3 -13 -23 -13 -108z"/>
<path d="M1367 744 c-4 -4 -7 -43 -7 -86 l0 -78 85 0 c69 0 85 3 85 15 0 12
-14 15 -70 15 l-70 0 0 55 0 55 61 0 c44 0 60 3 57 13 -5 13 -129 23 -141 11z"/>
<path d="M2017 744 c-16 -16 -5 -24 34 -24 28 0 39 4 37 13 -5 13 -60 22 -71
11z"/>
</g>
</svg>
