<svg class="border shadow-md dark:border-slate-700" viewBox="0 0 402.16 804.32" style="width: 402.16px; height: 804.32px;" xmlns="http://www.w3.org/2000/svg" preserveAspectRatio="none"><rect class="bg" id="bg" x="0" y="0" width="402.16" height="804.32" fill="#ffffff"/><g transform="rotate(99 201.08 402.16)"><path d="M -268.11 574.32 S -144.05 540.32&#10;            0.00 574.32 -6.89 440.32&#10;            268.11 574.32 284.21 394.32&#10;            536.21 574.32 660.27 522.32&#10;            804.32 574.32 928.37 551.32&#10;            1072.43 574.32 h 110 V 1404.3200000000002 H -268.11 Z" fill="#58B085"/><path d="M -268.11 255.00 S -144.05 137.50&#10;            0.00 255.00 124.05 122.00&#10;            268.11 255.00 392.16 137.50&#10;            536.21 255.00 660.27 137.50&#10;            804.32 255.00 826.43 137.50&#10;            1072.43 255.00 h 110 V -600 H -268.11 Z" fill="#298D5D"/></g></svg>